<svg xmlns="http://www.w3.org/2000/svg" viewBox="0 0 100 100">
  <!-- Dark brand background -->
  <rect width="100" height="100" rx="18" fill="#021024"/>
  <!-- Brixgate B mark, scaled and centred -->
  <g transform="translate(18, 12) scale(1.02)">
    <path fill="#FF5748" d="m29.16,20.1h-1.32c-4.16,0-7.53,3.37-7.53,7.53v8.34c0,3.52,2.85,6.37,6.37,6.37h9.08c8.8,0,15.93,7.13,15.93,15.93h0c0,8.8-7.13,15.93-15.93,15.93h0c-8.8,0-15.93-7.13-15.93-15.93v-10.21c0-3.13-2.53-5.66-5.66-5.66h-10.84c-3.17,0-5.73,2.57-5.73,5.73v3.54c0,17.43,14.13,31.56,31.56,31.56h0c17.43,0,31.56-14.13,31.56-31.56h0c0-17.43-14.13-31.56-31.56-31.56Z"/>
    <rect fill="#FF5748" x="-2.41" y="10.76" width="23.18" height="9.35" rx="3.57" ry="3.57"/>
  </g>
</svg>
