<?xml version="1.0" encoding="UTF-8"?>
<svg id="Layer_2" data-name="Layer 2" xmlns="http://www.w3.org/2000/svg" viewBox="0 0 239.32 274.75">
  <defs>
    <style>
      .cls-1 {
        fill: #fff;
        stroke-width: 0px;
      }
    </style>
  </defs>
  <g id="Layer_1-2" data-name="Layer 1">
    <g>
      <path class="cls-1" d="m119.67,35.43h-5c-15.77,0-28.55,12.78-28.55,28.55v31.6c0,13.33,10.81,24.14,24.14,24.14h34.42c33.35,0,60.38,27.03,60.38,60.38h0c0,33.35-27.03,60.38-60.38,60.38h0c-33.35,0-60.38-27.03-60.38-60.38v-38.7c0-11.85-9.61-21.47-21.47-21.47H21.74c-12,0-21.74,9.73-21.74,21.74v13.42c0,66.09,53.57,119.66,119.66,119.66h0c66.09,0,119.66-53.57,119.66-119.66h0c0-66.09-53.57-119.66-119.66-119.66h.01Z"/>
      <rect class="cls-1" x=".01" width="87.9" height="35.43" rx="13.52" ry="13.52"/>
    </g>
  </g>
</svg>