<svg width="244" height="72" viewBox="0 0 244 72" fill="none" xmlns="http://www.w3.org/2000/svg">
<path d="M31.5121 9.28464H30.1943C26.0395 9.28464 22.6777 12.6366 22.6777 16.7658V25.0485C22.6777 28.5462 25.527 31.3759 29.0351 31.3759H38.1013C46.8808 31.3759 54.0007 38.4623 54.0007 47.2005C54.0007 55.9386 46.8808 63.025 38.1013 63.025C29.3218 63.025 22.2019 55.9386 22.2019 47.2005V37.0536C22.2019 33.9445 19.6699 31.4245 16.5462 31.4245H5.72282C2.56246 31.4245 0 33.9749 0 37.1204V40.6362C0 57.9607 14.1118 72 31.5121 72C48.9185 72 63.0243 57.9546 63.0243 40.6362C63.0243 23.3118 48.9124 9.2725 31.5121 9.2725V9.28464Z" fill="#FF514A"/>
<path d="M19.5845 0H3.56303C1.59522 0 0 1.58771 0 3.54626V5.73838C0 7.69693 1.59522 9.28464 3.56303 9.28464H19.5845C21.5523 9.28464 23.1475 7.69693 23.1475 5.73838V3.54626C23.1475 1.58771 21.5523 0 19.5845 0Z" fill="#FF514A"/>
<path d="M81.986 51V17.4H93.8499C96.2291 17.4 98.1903 17.784 99.7336 18.552C101.309 19.288 102.483 20.312 103.254 21.624C104.026 22.904 104.412 24.344 104.412 25.944C104.412 27.672 104.026 29.112 103.254 30.264C102.515 31.416 101.534 32.296 100.312 32.904C99.1227 33.512 97.8527 33.88 96.5024 34.008L97.1776 33.528C98.6244 33.56 99.9587 33.944 101.18 34.68C102.402 35.416 103.367 36.408 104.074 37.656C104.814 38.904 105.183 40.296 105.183 41.832C105.183 43.528 104.765 45.08 103.929 46.488C103.093 47.864 101.856 48.968 100.216 49.8C98.6083 50.6 96.6149 51 94.2357 51H81.986ZM86.0371 47.64H93.8017C96.0844 47.64 97.8527 47.112 99.1066 46.056C100.393 44.968 101.036 43.464 101.036 41.544C101.036 39.656 100.377 38.152 99.0584 37.032C97.7724 35.88 95.988 35.304 93.7052 35.304H86.0371V47.64ZM86.0371 32.088H93.5605C95.7468 32.088 97.4026 31.576 98.5279 30.552C99.6854 29.528 100.264 28.136 100.264 26.376C100.264 24.68 99.6854 23.32 98.5279 22.296C97.4026 21.272 95.6986 20.76 93.4158 20.76H86.0371V32.088Z" fill="#FF514A"/>
<path d="M108.947 51V26.904H112.612L112.95 31.512C113.496 30.424 114.188 29.496 115.023 28.728C115.892 27.96 116.92 27.368 118.11 26.952C119.3 26.536 120.65 26.328 122.161 26.328V30.552H120.762C119.734 30.552 118.753 30.696 117.821 30.984C116.888 31.24 116.052 31.672 115.313 32.28C114.605 32.856 114.043 33.672 113.625 34.728C113.207 35.784 112.998 37.08 112.998 38.616V51H108.947Z" fill="#FF514A"/>
<path d="M125.328 51V26.904H129.379V51H125.328ZM127.353 21.72C126.55 21.72 125.874 21.464 125.328 20.952C124.813 20.408 124.556 19.736 124.556 18.936C124.556 18.136 124.813 17.496 125.328 17.016C125.874 16.504 126.55 16.248 127.353 16.248C128.125 16.248 128.784 16.504 129.331 17.016C129.877 17.496 130.151 18.136 130.151 18.936C130.151 19.736 129.877 20.408 129.331 20.952C128.784 21.464 128.125 21.72 127.353 21.72Z" fill="#FF514A"/>
<path d="M132.261 51L140.508 38.952L132.261 26.904H136.65L143.257 36.792L149.96 26.904H154.301L146.054 38.952L154.301 51H149.96L143.257 41.064L136.65 51H132.261Z" fill="#FF514A"/>
<path d="M166.385 62.136C164.199 62.136 162.27 61.848 160.598 61.272C158.926 60.728 157.624 59.88 156.691 58.728C155.759 57.576 155.293 56.152 155.293 54.456C155.293 53.72 155.437 52.936 155.727 52.104C156.048 51.304 156.579 50.504 157.318 49.704C158.09 48.904 159.167 48.184 160.549 47.544L163.298 49.176C161.627 49.88 160.533 50.68 160.019 51.576C159.505 52.472 159.247 53.304 159.247 54.072C159.247 55.128 159.553 56.008 160.164 56.712C160.774 57.416 161.61 57.944 162.671 58.296C163.765 58.648 165.002 58.824 166.385 58.824C167.767 58.824 168.957 58.616 169.954 58.2C170.95 57.816 171.722 57.272 172.269 56.568C172.815 55.896 173.088 55.08 173.088 54.12C173.088 53.032 172.671 52.104 171.835 51.336C170.999 50.6 169.423 50.168 167.108 50.04C165.179 49.912 163.572 49.736 162.286 49.512C161.032 49.288 159.987 49.032 159.151 48.744C158.315 48.424 157.608 48.072 157.029 47.688C156.482 47.304 155.984 46.904 155.534 46.488V45.384L160.212 40.728L163.732 41.976L158.91 46.344L159.537 44.664C159.89 44.92 160.228 45.16 160.549 45.384C160.871 45.576 161.305 45.752 161.852 45.912C162.398 46.072 163.154 46.232 164.118 46.392C165.083 46.52 166.385 46.648 168.025 46.776C170.211 46.936 171.963 47.32 173.281 47.928C174.632 48.536 175.596 49.352 176.175 50.376C176.786 51.4 177.091 52.6 177.091 53.976C177.091 55.352 176.706 56.648 175.934 57.864C175.194 59.112 174.037 60.136 172.462 60.936C170.886 61.736 168.861 62.136 166.385 62.136ZM166.337 43.416C164.311 43.416 162.591 43.048 161.176 42.312C159.762 41.544 158.685 40.52 157.945 39.24C157.206 37.928 156.836 36.472 156.836 34.872C156.836 33.272 157.206 31.832 157.945 30.552C158.685 29.272 159.762 28.248 161.176 27.48C162.591 26.712 164.311 26.328 166.337 26.328C168.394 26.328 170.131 26.712 171.545 27.48C172.96 28.248 174.037 29.272 174.776 30.552C175.516 31.832 175.886 33.272 175.886 34.872C175.886 36.472 175.516 37.928 174.776 39.24C174.037 40.52 172.96 41.544 171.545 42.312C170.131 43.048 168.394 43.416 166.337 43.416ZM166.337 40.104C168.073 40.104 169.439 39.672 170.436 38.808C171.465 37.912 171.979 36.6 171.979 34.872C171.979 33.208 171.465 31.928 170.436 31.032C169.439 30.136 168.073 29.688 166.337 29.688C164.633 29.688 163.266 30.136 162.237 31.032C161.209 31.928 160.694 33.208 160.694 34.872C160.694 36.6 161.209 37.912 162.237 38.808C163.266 39.672 164.633 40.104 166.337 40.104ZM170.291 30.312L169.086 26.904H179.02V29.928L170.291 30.312Z" fill="#FF514A"/>
<path d="M189.782 51.576C187.821 51.576 186.181 51.24 184.863 50.568C183.544 49.864 182.564 48.952 181.921 47.832C181.278 46.68 180.956 45.448 180.956 44.136C180.956 42.504 181.374 41.128 182.21 40.008C183.078 38.856 184.284 37.992 185.827 37.416C187.403 36.808 189.235 36.504 191.325 36.504H197.788C197.788 35 197.546 33.752 197.064 32.76C196.614 31.768 195.939 31.016 195.039 30.504C194.138 29.992 193.045 29.736 191.759 29.736C190.216 29.736 188.882 30.12 187.756 30.888C186.631 31.656 185.94 32.792 185.683 34.296H181.535C181.728 32.568 182.307 31.128 183.271 29.976C184.268 28.792 185.522 27.896 187.033 27.288C188.544 26.648 190.119 26.328 191.759 26.328C194.01 26.328 195.875 26.744 197.353 27.576C198.832 28.376 199.942 29.512 200.681 30.984C201.453 32.424 201.839 34.12 201.839 36.072V51H198.222L197.98 46.728C197.659 47.4 197.241 48.04 196.727 48.648C196.244 49.224 195.666 49.736 194.99 50.184C194.347 50.6 193.592 50.936 192.724 51.192C191.856 51.448 190.875 51.576 189.782 51.576ZM190.409 48.168C191.534 48.168 192.547 47.944 193.447 47.496C194.379 47.016 195.167 46.376 195.81 45.576C196.453 44.776 196.936 43.88 197.257 42.888C197.611 41.864 197.788 40.824 197.788 39.768V39.624H191.663C190.119 39.624 188.866 39.816 187.901 40.2C186.936 40.552 186.245 41.064 185.827 41.736C185.409 42.376 185.2 43.112 185.2 43.944C185.2 44.808 185.393 45.56 185.779 46.2C186.197 46.808 186.792 47.288 187.563 47.64C188.335 47.992 189.283 48.168 190.409 48.168Z" fill="#FF514A"/>
<path d="M215.138 51C213.692 51 212.438 50.776 211.377 50.328C210.316 49.88 209.496 49.128 208.917 48.072C208.37 46.984 208.097 45.528 208.097 43.704V30.312H203.901V26.904H208.097L208.628 21.096H212.148V26.904H219.238V30.312H212.148V43.704C212.148 45.208 212.454 46.232 213.065 46.776C213.675 47.288 214.753 47.544 216.296 47.544H218.9V51H215.138Z" fill="#FF514A"/>
<path d="M232.667 51.576C230.416 51.576 228.407 51.048 226.638 49.992C224.87 48.936 223.471 47.464 222.442 45.576C221.446 43.688 220.947 41.48 220.947 38.952C220.947 36.392 221.446 34.184 222.442 32.328C223.439 30.44 224.822 28.968 226.59 27.912C228.39 26.856 230.448 26.328 232.763 26.328C235.142 26.328 237.168 26.856 238.84 27.912C240.512 28.968 241.782 30.344 242.65 32.04C243.55 33.736 244 35.608 244 37.656C244 37.976 244 38.312 244 38.664C244 39.016 243.984 39.416 243.952 39.864H223.986V36.744H239.997C239.901 34.536 239.161 32.824 237.779 31.608C236.428 30.36 234.724 29.736 232.667 29.736C231.316 29.736 230.046 30.056 228.857 30.696C227.667 31.304 226.703 32.2 225.963 33.384C225.256 34.568 224.902 36.056 224.902 37.848V39.192C224.902 41.176 225.272 42.84 226.011 44.184C226.751 45.496 227.699 46.488 228.857 47.16C230.046 47.832 231.316 48.168 232.667 48.168C234.371 48.168 235.769 47.8 236.862 47.064C237.988 46.296 238.808 45.256 239.322 43.944H243.325C242.907 45.416 242.216 46.728 241.251 47.88C240.286 49 239.081 49.896 237.634 50.568C236.219 51.24 234.564 51.576 232.667 51.576Z" fill="#FF514A"/>
</svg>
